# xmcd
#
# Track frame offsets: 
#        150
#        19893
#        32614
#        46760
#        60119
#        73440
#        88336
#        100232
#        116253
#        129678
#        143290
#        156790
#
# Disc length: 2240 seconds
#
# Revision: 0
# Processed by: cddbd v1.5.2PL0 Copyright (c) Steve Scherf et al.
# Submitted via: ExactAudioCopy v0.99pb5
#
DISCID=9808be0c
DTITLE=Saint Germain Des Prés - Classic Blues [CD 1)
DYEAR=2014
DGENRE=Blues
TTITLE0=Sinners Prayer - B.B.King and Ray Charles
TTITLE1=T-Model Blues - Lightnin' Hopkins
TTITLE2=Boogie Chillen - John Lee Hooker
TTITLE3=Sweet Home Chicago - Robert Johnson
TTITLE4=Stack O'lee Blues - Mississippi John Hurt
TTITLE5=Pain In My Heart - Willie Dixon
TTITLE6=Steelin' - Jeff Beck's All Stars
TTITLE7=Cold And Lonesome - Jimmy Reed
TTITLE8=Central Park Blues - Nina Simone
TTITLE9=Pink Champagne - Joe Liggins
TTITLE10=All Around Man - Bo Carter
TTITLE11=Highway 60 - Johnny "Guitar" Watson
EXTD=
EXTT0=
EXTT1=
EXTT2=
EXTT3=
EXTT4=
EXTT5=
EXTT6=
EXTT7=
EXTT8=
EXTT9=
EXTT10=
EXTT11=
PLAYORDER=
